# xmcd CD database file
#
# Track frame offsets:
#	150
#	17037
#	35273
#	52711
#	67858
#	85187
#	100226
#	116162
#	140156
#	159841
#	176797
#
# Disc length: 2612 seconds
#
# Revision: 2
# Processed by: cddbd v1.5.1PL2 Copyright (c) Steve Scherf et al.
# Submitted via: CDex 1.70beta2
#
DISCID=860a320b
DTITLE=Uniklubi - Keh‰
DYEAR=2005
DGENRE=Rock
TTITLE0=Kiert‰‰ keh‰‰
TTITLE1=Haudattu
TTITLE2=Huomenna
TTITLE3=Uneen
TTITLE4=Lasinsirpaleilla
TTITLE5=Kaikki mit‰ m‰ annoin
TTITLE6=Ei kukaan
TTITLE7=Tuhka
TTITLE8=Palvelija
TTITLE9=Menneisyys
TTITLE10=Kaksi kuvaa
EXTD=YEAR: 2005
EXTT0=
EXTT1=
EXTT2=
EXTT3=
EXTT4=
EXTT5=
EXTT6=
EXTT7=
EXTT8=
EXTT9=
EXTT10=
PLAYORDER=
